<mxfile host="app.diagrams.net" modified="2024-01-26T17:31:39.812Z" agent="Mozilla/5.0 (Windows NT 10.0; Win64; x64) AppleWebKit/537.36 (KHTML, like Gecko) Chrome/120.0.0.0 Safari/537.36" etag="7s8RBGLoVk791SdTiWdp" version="23.0.2" type="device">
  <diagram name="Page-1" id="Y-IBK8_lrVYP1G2H312X">
    <mxGraphModel dx="1695" dy="500" grid="1" gridSize="10" guides="1" tooltips="1" connect="1" arrows="1" fold="1" page="1" pageScale="1" pageWidth="850" pageHeight="1100" math="0" shadow="0">
      <root>
        <mxCell id="0" />
        <mxCell id="1" parent="0" />
        <mxCell id="zvdLutXropkOz51VJhZw-1" value="Windows 10 PC&lt;br&gt;Wazuh Agent&lt;br&gt;" style="fontColor=#0066CC;verticalAlign=top;verticalLabelPosition=bottom;labelPosition=center;align=center;html=1;outlineConnect=0;fillColor=#CCCCCC;strokeColor=#6881B3;gradientColor=none;gradientDirection=north;strokeWidth=2;shape=mxgraph.networks.pc;" parent="1" vertex="1">
          <mxGeometry x="325" y="470" width="100" height="70" as="geometry" />
        </mxCell>
        <mxCell id="zvdLutXropkOz51VJhZw-16" style="edgeStyle=orthogonalEdgeStyle;rounded=0;orthogonalLoop=1;jettySize=auto;html=1;shape=link;" parent="1" source="zvdLutXropkOz51VJhZw-2" target="zvdLutXropkOz51VJhZw-4" edge="1">
          <mxGeometry relative="1" as="geometry" />
        </mxCell>
        <mxCell id="zvdLutXropkOz51VJhZw-2" value="Router&lt;br&gt;" style="sketch=0;points=[[0.5,0,0],[1,0.5,0],[0.5,1,0],[0,0.5,0],[0.145,0.145,0],[0.8555,0.145,0],[0.855,0.8555,0],[0.145,0.855,0]];verticalLabelPosition=bottom;html=1;verticalAlign=top;aspect=fixed;align=center;pointerEvents=1;shape=mxgraph.cisco19.rect;prIcon=router;fillColor=#FAFAFA;strokeColor=#005073;" parent="1" vertex="1">
          <mxGeometry x="350" y="340" width="50" height="50" as="geometry" />
        </mxCell>
        <mxCell id="zvdLutXropkOz51VJhZw-41" style="edgeStyle=elbowEdgeStyle;rounded=0;orthogonalLoop=1;jettySize=auto;html=1;shape=link;fillColor=#dae8fc;gradientColor=#7ea6e0;strokeColor=#6c8ebf;" parent="1" source="zvdLutXropkOz51VJhZw-3" target="zvdLutXropkOz51VJhZw-1" edge="1">
          <mxGeometry relative="1" as="geometry" />
        </mxCell>
        <mxCell id="zvdLutXropkOz51VJhZw-42" value="8. Perform Responsive Action" style="edgeLabel;html=1;align=center;verticalAlign=middle;resizable=0;points=[];" parent="zvdLutXropkOz51VJhZw-41" vertex="1" connectable="0">
          <mxGeometry x="-0.1399" y="2" relative="1" as="geometry">
            <mxPoint as="offset" />
          </mxGeometry>
        </mxCell>
        <mxCell id="zvdLutXropkOz51VJhZw-3" value="Wazuh Manager&lt;br&gt;" style="image;aspect=fixed;perimeter=ellipsePerimeter;html=1;align=center;shadow=0;dashed=0;spacingTop=3;image=img/lib/active_directory/internet_cloud.svg;" parent="1" vertex="1">
          <mxGeometry x="50" y="230" width="50" height="31.5" as="geometry" />
        </mxCell>
        <mxCell id="zvdLutXropkOz51VJhZw-18" style="edgeStyle=orthogonalEdgeStyle;rounded=0;orthogonalLoop=1;jettySize=auto;html=1;entryX=1;entryY=1;entryDx=0;entryDy=0;shape=link;" parent="1" source="zvdLutXropkOz51VJhZw-4" target="zvdLutXropkOz51VJhZw-3" edge="1">
          <mxGeometry relative="1" as="geometry" />
        </mxCell>
        <mxCell id="zvdLutXropkOz51VJhZw-19" value="2. Receive Events" style="edgeLabel;html=1;align=center;verticalAlign=middle;resizable=0;points=[];" parent="zvdLutXropkOz51VJhZw-18" vertex="1" connectable="0">
          <mxGeometry x="0.3987" y="1" relative="1" as="geometry">
            <mxPoint as="offset" />
          </mxGeometry>
        </mxCell>
        <mxCell id="zvdLutXropkOz51VJhZw-35" style="rounded=0;orthogonalLoop=1;jettySize=auto;html=1;entryX=0;entryY=1;entryDx=0;entryDy=0;shape=link;fillColor=#ffcd28;strokeColor=#d79b00;gradientColor=#ffa500;" parent="1" source="zvdLutXropkOz51VJhZw-4" target="zvdLutXropkOz51VJhZw-7" edge="1">
          <mxGeometry relative="1" as="geometry">
            <Array as="points">
              <mxPoint x="290" y="180" />
            </Array>
          </mxGeometry>
        </mxCell>
        <mxCell id="zvdLutXropkOz51VJhZw-4" value="Internet" style="image;aspect=fixed;perimeter=ellipsePerimeter;html=1;align=center;shadow=0;dashed=0;spacingTop=3;image=img/lib/active_directory/internet_cloud.svg;" parent="1" vertex="1">
          <mxGeometry x="360" y="240" width="50" height="31.5" as="geometry" />
        </mxCell>
        <mxCell id="zvdLutXropkOz51VJhZw-5" value="The Hive" style="image;aspect=fixed;perimeter=ellipsePerimeter;html=1;align=center;shadow=0;dashed=0;spacingTop=3;image=img/lib/active_directory/internet_cloud.svg;" parent="1" vertex="1">
          <mxGeometry x="660" y="198.5" width="50" height="31.5" as="geometry" />
        </mxCell>
        <mxCell id="zvdLutXropkOz51VJhZw-21" style="rounded=0;orthogonalLoop=1;jettySize=auto;html=1;exitX=0;exitY=0.5;exitDx=0;exitDy=0;entryX=0.5;entryY=0;entryDx=0;entryDy=0;shape=link;" parent="1" source="zvdLutXropkOz51VJhZw-7" target="zvdLutXropkOz51VJhZw-3" edge="1">
          <mxGeometry relative="1" as="geometry" />
        </mxCell>
        <mxCell id="zvdLutXropkOz51VJhZw-22" value="3. Send Alerts" style="edgeLabel;html=1;align=center;verticalAlign=middle;resizable=0;points=[];" parent="zvdLutXropkOz51VJhZw-21" vertex="1" connectable="0">
          <mxGeometry x="0.0888" y="-3" relative="1" as="geometry">
            <mxPoint as="offset" />
          </mxGeometry>
        </mxCell>
        <mxCell id="zvdLutXropkOz51VJhZw-24" style="edgeStyle=orthogonalEdgeStyle;rounded=0;orthogonalLoop=1;jettySize=auto;html=1;shape=link;fillColor=#d5e8d4;strokeColor=#82b366;" parent="1" source="zvdLutXropkOz51VJhZw-7" target="zvdLutXropkOz51VJhZw-4" edge="1">
          <mxGeometry relative="1" as="geometry" />
        </mxCell>
        <mxCell id="zvdLutXropkOz51VJhZw-25" value="4. Enrich IOC" style="edgeLabel;html=1;align=center;verticalAlign=middle;resizable=0;points=[];" parent="zvdLutXropkOz51VJhZw-24" vertex="1" connectable="0">
          <mxGeometry x="0.0254" y="-1" relative="1" as="geometry">
            <mxPoint x="1" y="28" as="offset" />
          </mxGeometry>
        </mxCell>
        <mxCell id="zvdLutXropkOz51VJhZw-26" style="rounded=0;orthogonalLoop=1;jettySize=auto;html=1;shape=link;fillColor=#d80073;strokeColor=#A50040;" parent="1" source="zvdLutXropkOz51VJhZw-7" target="zvdLutXropkOz51VJhZw-5" edge="1">
          <mxGeometry relative="1" as="geometry" />
        </mxCell>
        <mxCell id="zvdLutXropkOz51VJhZw-27" value="5. Send Alerts" style="edgeLabel;html=1;align=center;verticalAlign=middle;resizable=0;points=[];" parent="zvdLutXropkOz51VJhZw-26" vertex="1" connectable="0">
          <mxGeometry x="-0.0917" y="2" relative="1" as="geometry">
            <mxPoint as="offset" />
          </mxGeometry>
        </mxCell>
        <mxCell id="zvdLutXropkOz51VJhZw-28" style="rounded=0;orthogonalLoop=1;jettySize=auto;html=1;entryX=1;entryY=0.5;entryDx=0;entryDy=0;shape=link;edgeStyle=orthogonalEdgeStyle;" parent="1" source="zvdLutXropkOz51VJhZw-7" target="zvdLutXropkOz51VJhZw-4" edge="1">
          <mxGeometry relative="1" as="geometry" />
        </mxCell>
        <mxCell id="zvdLutXropkOz51VJhZw-29" value="6. Send email" style="edgeLabel;html=1;align=center;verticalAlign=middle;resizable=0;points=[];" parent="zvdLutXropkOz51VJhZw-28" vertex="1" connectable="0">
          <mxGeometry x="0.4222" y="1" relative="1" as="geometry">
            <mxPoint x="29" as="offset" />
          </mxGeometry>
        </mxCell>
        <mxCell id="zvdLutXropkOz51VJhZw-38" style="edgeStyle=orthogonalEdgeStyle;rounded=0;orthogonalLoop=1;jettySize=auto;html=1;exitX=0;exitY=0;exitDx=0;exitDy=0;entryX=0.25;entryY=0;entryDx=0;entryDy=0;shape=link;fillColor=#dae8fc;gradientColor=#7ea6e0;strokeColor=#6c8ebf;" parent="1" source="zvdLutXropkOz51VJhZw-7" target="zvdLutXropkOz51VJhZw-3" edge="1">
          <mxGeometry relative="1" as="geometry" />
        </mxCell>
        <mxCell id="zvdLutXropkOz51VJhZw-39" value="8. Send Responsive Action" style="edgeLabel;html=1;align=center;verticalAlign=middle;resizable=0;points=[];" parent="zvdLutXropkOz51VJhZw-38" vertex="1" connectable="0">
          <mxGeometry x="-0.1613" y="3" relative="1" as="geometry">
            <mxPoint as="offset" />
          </mxGeometry>
        </mxCell>
        <mxCell id="zvdLutXropkOz51VJhZw-7" value="Shuffle" style="image;aspect=fixed;perimeter=ellipsePerimeter;html=1;align=center;shadow=0;dashed=0;spacingTop=3;image=img/lib/active_directory/internet_cloud.svg;" parent="1" vertex="1">
          <mxGeometry x="360" y="50" width="50" height="31.5" as="geometry" />
        </mxCell>
        <mxCell id="zvdLutXropkOz51VJhZw-31" style="rounded=0;orthogonalLoop=1;jettySize=auto;html=1;entryX=0.5;entryY=1;entryDx=0;entryDy=0;shape=link;fillColor=#6a00ff;strokeColor=#3700CC;" parent="1" source="zvdLutXropkOz51VJhZw-8" target="zvdLutXropkOz51VJhZw-4" edge="1">
          <mxGeometry relative="1" as="geometry" />
        </mxCell>
        <mxCell id="zvdLutXropkOz51VJhZw-32" value="7. Send and receive email" style="edgeLabel;html=1;align=center;verticalAlign=middle;resizable=0;points=[];" parent="zvdLutXropkOz51VJhZw-31" vertex="1" connectable="0">
          <mxGeometry x="0.1246" y="2" relative="1" as="geometry">
            <mxPoint x="38" as="offset" />
          </mxGeometry>
        </mxCell>
        <mxCell id="zvdLutXropkOz51VJhZw-33" style="rounded=0;orthogonalLoop=1;jettySize=auto;html=1;shape=link;fillColor=#1ba1e2;strokeColor=#006EAF;" parent="1" source="zvdLutXropkOz51VJhZw-8" target="zvdLutXropkOz51VJhZw-4" edge="1">
          <mxGeometry relative="1" as="geometry">
            <mxPoint x="596.28" y="390.42832075037404" as="sourcePoint" />
            <mxPoint x="379.99625657487763" y="269.5617010365107" as="targetPoint" />
            <Array as="points">
              <mxPoint x="470" y="440" />
            </Array>
          </mxGeometry>
        </mxCell>
        <mxCell id="zvdLutXropkOz51VJhZw-34" value="8. Send response action" style="edgeLabel;html=1;align=center;verticalAlign=middle;resizable=0;points=[];" parent="zvdLutXropkOz51VJhZw-33" vertex="1" connectable="0">
          <mxGeometry x="-0.2848" y="4" relative="1" as="geometry">
            <mxPoint as="offset" />
          </mxGeometry>
        </mxCell>
        <mxCell id="zvdLutXropkOz51VJhZw-8" value="SOC Analyst" style="fontColor=#0066CC;verticalAlign=top;verticalLabelPosition=bottom;labelPosition=center;align=center;html=1;outlineConnect=0;fillColor=#CCCCCC;strokeColor=#6881B3;gradientColor=none;gradientDirection=north;strokeWidth=2;shape=mxgraph.networks.pc;" parent="1" vertex="1">
          <mxGeometry x="610" y="380" width="100" height="70" as="geometry" />
        </mxCell>
        <mxCell id="zvdLutXropkOz51VJhZw-9" style="edgeStyle=orthogonalEdgeStyle;rounded=0;orthogonalLoop=1;jettySize=auto;html=1;entryX=0.5;entryY=1;entryDx=0;entryDy=0;entryPerimeter=0;startArrow=classicThin;startFill=1;shape=link;fillColor=#f5f5f5;strokeColor=#666666;" parent="1" source="zvdLutXropkOz51VJhZw-1" target="zvdLutXropkOz51VJhZw-2" edge="1">
          <mxGeometry relative="1" as="geometry" />
        </mxCell>
        <mxCell id="zvdLutXropkOz51VJhZw-10" value="1. Send Events" style="edgeLabel;html=1;align=center;verticalAlign=middle;resizable=0;points=[];" parent="zvdLutXropkOz51VJhZw-9" vertex="1" connectable="0">
          <mxGeometry x="-0.075" relative="1" as="geometry">
            <mxPoint as="offset" />
          </mxGeometry>
        </mxCell>
        <mxCell id="zvdLutXropkOz51VJhZw-44" style="edgeStyle=orthogonalEdgeStyle;rounded=0;orthogonalLoop=1;jettySize=auto;html=1;" parent="1" source="zvdLutXropkOz51VJhZw-43" edge="1">
          <mxGeometry relative="1" as="geometry">
            <mxPoint x="210" y="783" as="targetPoint" />
          </mxGeometry>
        </mxCell>
        <mxCell id="zvdLutXropkOz51VJhZw-43" value="Windows 10&lt;br&gt;Send Events" style="text;html=1;align=center;verticalAlign=middle;resizable=0;points=[];autosize=1;strokeColor=none;fillColor=none;" parent="1" vertex="1">
          <mxGeometry x="-5" y="763" width="90" height="40" as="geometry" />
        </mxCell>
        <mxCell id="zvdLutXropkOz51VJhZw-46" style="edgeStyle=orthogonalEdgeStyle;rounded=0;orthogonalLoop=1;jettySize=auto;html=1;" parent="1" source="zvdLutXropkOz51VJhZw-45" edge="1">
          <mxGeometry relative="1" as="geometry">
            <mxPoint x="510" y="810" as="targetPoint" />
          </mxGeometry>
        </mxCell>
        <mxCell id="zvdLutXropkOz51VJhZw-45" value="Wazuh Manager&lt;br&gt;Trigger alerts and perform&amp;nbsp;&lt;br&gt;responsive action&lt;br&gt;" style="text;html=1;align=center;verticalAlign=middle;resizable=0;points=[];autosize=1;strokeColor=none;fillColor=none;" parent="1" vertex="1">
          <mxGeometry x="210" y="753" width="170" height="60" as="geometry" />
        </mxCell>
        <mxCell id="zvdLutXropkOz51VJhZw-48" style="edgeStyle=orthogonalEdgeStyle;rounded=0;orthogonalLoop=1;jettySize=auto;html=1;" parent="1" source="zvdLutXropkOz51VJhZw-47" edge="1">
          <mxGeometry relative="1" as="geometry">
            <mxPoint x="595" y="700" as="targetPoint" />
          </mxGeometry>
        </mxCell>
        <mxCell id="zvdLutXropkOz51VJhZw-50" style="edgeStyle=orthogonalEdgeStyle;rounded=0;orthogonalLoop=1;jettySize=auto;html=1;" parent="1" source="zvdLutXropkOz51VJhZw-47" edge="1">
          <mxGeometry relative="1" as="geometry">
            <mxPoint x="595" y="910" as="targetPoint" />
          </mxGeometry>
        </mxCell>
        <mxCell id="zvdLutXropkOz51VJhZw-52" style="edgeStyle=orthogonalEdgeStyle;rounded=0;orthogonalLoop=1;jettySize=auto;html=1;" parent="1" source="zvdLutXropkOz51VJhZw-47" edge="1">
          <mxGeometry relative="1" as="geometry">
            <mxPoint x="730" y="813" as="targetPoint" />
          </mxGeometry>
        </mxCell>
        <mxCell id="zvdLutXropkOz51VJhZw-47" value="Shuffle&lt;br&gt;Receive Wazuh alerts and&amp;nbsp;&lt;br&gt;send responsive actions" style="text;html=1;align=center;verticalAlign=middle;resizable=0;points=[];autosize=1;strokeColor=none;fillColor=none;" parent="1" vertex="1">
          <mxGeometry x="510" y="783" width="170" height="60" as="geometry" />
        </mxCell>
        <mxCell id="zvdLutXropkOz51VJhZw-49" value="OSINT&lt;br&gt;Enrich IOC" style="text;html=1;align=center;verticalAlign=middle;resizable=0;points=[];autosize=1;strokeColor=none;fillColor=none;" parent="1" vertex="1">
          <mxGeometry x="555" y="650" width="80" height="40" as="geometry" />
        </mxCell>
        <mxCell id="zvdLutXropkOz51VJhZw-51" value="TheHive&lt;br&gt;Create alert in case management&lt;br&gt;" style="text;html=1;align=center;verticalAlign=middle;resizable=0;points=[];autosize=1;strokeColor=none;fillColor=none;" parent="1" vertex="1">
          <mxGeometry x="495" y="910" width="200" height="40" as="geometry" />
        </mxCell>
        <mxCell id="zvdLutXropkOz51VJhZw-53" value="Email&lt;br&gt;Send Email and&amp;nbsp;&lt;br&gt;Response alert" style="text;html=1;align=center;verticalAlign=middle;resizable=0;points=[];autosize=1;strokeColor=none;fillColor=none;" parent="1" vertex="1">
          <mxGeometry x="730" y="783" width="110" height="60" as="geometry" />
        </mxCell>
      </root>
    </mxGraphModel>
  </diagram>
</mxfile>
